# xmcd CD database file
#
# Track frame offsets:
#	150
#	27909
#	56922
#	88931
#	105014
#	120319
#	145326
#	164222
#	202420
#
# Disc length: 2924 seconds
#
# Revision: 4
# Processed by: cddbd v1.5.1PL0 Copyright (c) Steve Scherf et al.
# Submitted via: CDex 1.51
#
DISCID=820b6a09
DTITLE=Hobo Blues Band - Kövek az útról
DYEAR=1997
DGENRE=Blues
TTITLE0=Adj menedéket!
TTITLE1=Lady Jane - Ahogy felszáradnak a könnyek
TTITLE2=Éjféli csavargó
TTITLE3=Fesd feketére!
TTITLE4=Sztárfaló
TTITLE5=Nincs több gyengéd suttogás
TTITLE6=Dobókocka
TTITLE7=Mindent nem kaphatsz meg, ami kell
TTITLE8=Rolling Stones blues '97
EXTD=YEAR: 1997
EXTT0=
EXTT1=
EXTT2=
EXTT3=
EXTT4=
EXTT5=
EXTT6=
EXTT7=
EXTT8=
PLAYORDER=
